# xmcd
#
# Track frame offsets: 
#        150
#        18649
#        42093
#        62529
#        81886
#        100916
#        118162
#        141127
#        171159
#        193479
#        210849
#        232776
#        262339
#        286920
#        308570
#
# Disc length: 4532 seconds
#
# Revision: 0
# Processed by: cddbd v1.5.2PL0 Copyright (c) Steve Scherf et al.
# Submitted via: ExactAudioCopy v1.3
#
DISCID=d111b20f
DTITLE=Larry Miller - The Sinner And The Saint
DYEAR=2019
DGENRE=Rock
TTITLE0=I Gotta Turn The Corner
TTITLE1=Women And The Blues
TTITLE2=I Want My Life Back
TTITLE3=I May Be Down (But The Kids Ain't Out)
TTITLE4=Black Oak Arkansas Hangman
TTITLE5=Your Tears Will Hit The Floor
TTITLE6=Keeper Of The Flame
TTITLE7=No More Mr. Nice Guy
TTITLE8=Don't Talk About Me
TTITLE9=Hear The Train A Coming
TTITLE10=Rescue Me
TTITLE11=The Outlawed Name
TTITLE12=Taste My Love
TTITLE13=Why Don't You Believe
TTITLE14=Ain't No Love Here Anymore
EXTD=
EXTT0=
EXTT1=
EXTT2=
EXTT3=
EXTT4=
EXTT5=
EXTT6=
EXTT7=
EXTT8=
EXTT9=
EXTT10=
EXTT11=
EXTT12=
EXTT13=
EXTT14=
PLAYORDER=
